{
	"asset":{
		"generator":"Khronos glTF Blender I/O v3.6.27",
		"version":"2.0"
	},
	"extensionsUsed":[
		"KHR_materials_specular",
		"KHR_materials_ior"
	],
	"scene":0,
	"scenes":[
		{
			"name":"Scene",
			"nodes":[
				0,
				1,
				2,
				3,
				4,
				5,
				6,
				7,
				8
			]
		}
	],
	"nodes":[
		{
			"mesh":0,
			"name":"base"
		},
		{
			"mesh":1,
			"name":"Cube",
			"rotation":[
				0,
				0.4617486596107483,
				0,
				0.887010931968689
			],
			"scale":[
				0.26951321959495544,
				0.4005929231643677,
				0.13323606550693512
			],
			"translation":[
				0,
				0.07486454397439957,
				0
			]
		},
		{
			"mesh":2,
			"name":"Cube.001",
			"rotation":[
				0,
				-0.18480905890464783,
				0,
				0.982774555683136
			],
			"translation":[
				0.287259042263031,
				-0.004520595073699951,
				0.35002613067626953
			]
		},
		{
			"mesh":3,
			"name":"Cube.002",
			"scale":[
				5.4083476066589355,
				0.6503555774688721,
				5.4083476066589355
			],
			"translation":[
				0,
				-0.6982760429382324,
				0
			]
		},
		{
			"mesh":4,
			"name":"Cylinder",
			"rotation":[
				0.1830126941204071,
				-0.1830126941204071,
				-0.6830127239227295,
				0.6830126643180847
			],
			"scale":[
				0.6541442275047302,
				0.6541442275047302,
				0.6541442275047302
			],
			"translation":[
				0.3923656940460205,
				-0.004520595073699951,
				0.21554559469223022
			]
		},
		{
			"mesh":5,
			"name":"Cylinder.001",
			"scale":[
				1.070977807044983,
				1.230440616607666,
				1.070977807044983
			],
			"translation":[
				0,
				0.02914634346961975,
				0
			]
		},
		{
			"mesh":6,
			"name":"Cylinder.002",
			"rotation":[
				0,
				0,
				-0.7071068286895752,
				0.7071068286895752
			],
			"scale":[
				0.7456967830657959,
				0.7456967830657959,
				0.7456967830657959
			],
			"translation":[
				0.4520658850669861,
				-0.00032557547092437744,
				-0.00041504204273223877
			]
		},
		{
			"mesh":7,
			"name":"Plane",
			"rotation":[
				0,
				0.016299154609441757,
				0,
				0.9998672604560852
			],
			"scale":[
				0.022616850212216377,
				0.022616848349571228,
				0.022616850212216377
			],
			"translation":[
				0,
				0.05870666727423668,
				0
			]
		},
		{
			"mesh":8,
			"name":"Plane.001",
			"rotation":[
				0,
				0.8356229066848755,
				0,
				0.5493035316467285
			],
			"scale":[
				0.023880140855908394,
				0.023880135267972946,
				0.023880140855908394
			],
			"translation":[
				0,
				0.052289266139268875,
				0
			]
		}
	],
	"materials":[
		{
			"doubleSided":true,
			"extensions":{
				"KHR_materials_specular":{
					"specularColorFactor":[
						2.371357614441398,
						2.371357614441398,
						2.371357614441398
					]
				},
				"KHR_materials_ior":{
					"ior":1.4500000476837158
				}
			},
			"name":"Material.003",
			"pbrMetallicRoughness":{
				"baseColorTexture":{
					"index":0
				},
				"roughnessFactor":0.11931818723678589
			}
		},
		{
			"doubleSided":true,
			"emissiveFactor":[
				0.4000000059604645,
				0.4000000059604645,
				0.4000000059604645
			],
			"extensions":{
				"KHR_materials_specular":{
					"specularColorFactor":[
						2.371357614441398,
						2.371357614441398,
						2.371357614441398
					]
				},
				"KHR_materials_ior":{
					"ior":1.4500000476837158
				}
			},
			"name":"Material.002",
			"pbrMetallicRoughness":{
				"roughnessFactor":0.19886362552642822
			}
		},
		{
			"doubleSided":true,
			"extensions":{
				"KHR_materials_specular":{
					"specularColorFactor":[
						0.5793657936504714,
						0.5793657936504714,
						0.5793657936504714
					]
				},
				"KHR_materials_ior":{
					"ior":1.4500000476837158
				}
			},
			"name":"Material.007",
			"pbrMetallicRoughness":{
				"baseColorFactor":[
					0.2956883907318115,
					0.09502331912517548,
					0.04243628680706024,
					1
				],
				"metallicFactor":0
			}
		},
		{
			"doubleSided":true,
			"extensions":{
				"KHR_materials_specular":{
					"specularColorFactor":[
						1.0374689563181116,
						1.0374689563181116,
						1.0374689563181116
					]
				},
				"KHR_materials_ior":{
					"ior":1.4500000476837158
				}
			},
			"name":"Material.001",
			"pbrMetallicRoughness":{
				"baseColorFactor":[
					0.800000011920929,
					0.800000011920929,
					0.800000011920929,
					1
				],
				"metallicFactor":0.5113636255264282,
				"roughnessFactor":0.1931818127632141
			}
		}
	],
	"meshes":[
		{
			"name":"Cylinder.004",
			"primitives":[
				{
					"attributes":{
						"POSITION":0,
						"NORMAL":1
					},
					"indices":2,
					"material":0
				}
			]
		},
		{
			"name":"Cube.001",
			"primitives":[
				{
					"attributes":{
						"POSITION":3,
						"NORMAL":4
					},
					"indices":5,
					"material":1
				}
			]
		},
		{
			"name":"Cube",
			"primitives":[
				{
					"attributes":{
						"POSITION":6,
						"NORMAL":7
					},
					"indices":8,
					"material":0
				}
			]
		},
		{
			"name":"Cube.002",
			"primitives":[
				{
					"attributes":{
						"POSITION":9,
						"NORMAL":10
					},
					"indices":11,
					"material":2
				}
			]
		},
		{
			"name":"Cylinder.005",
			"primitives":[
				{
					"attributes":{
						"POSITION":12,
						"NORMAL":13
					},
					"indices":14,
					"material":1
				}
			]
		},
		{
			"name":"Cylinder.002",
			"primitives":[
				{
					"attributes":{
						"POSITION":15,
						"NORMAL":16
					},
					"indices":17,
					"material":3
				}
			]
		},
		{
			"name":"Cylinder.006",
			"primitives":[
				{
					"attributes":{
						"POSITION":18,
						"NORMAL":19
					},
					"indices":20,
					"material":1
				}
			]
		},
		{
			"name":"Plane",
			"primitives":[
				{
					"attributes":{
						"POSITION":21,
						"NORMAL":22
					},
					"indices":23,
					"material":1
				}
			]
		},
		{
			"name":"Plane.001",
			"primitives":[
				{
					"attributes":{
						"POSITION":24,
						"NORMAL":25
					},
					"indices":26,
					"material":1
				}
			]
		}
	],
	"textures":[
		{
			"sampler":0,
			"source":0
		}
	],
	"images":[
		{
			"bufferView":3,
			"mimeType":"image/jpeg",
			"name":"Material"
		}
	],
	"accessors":[
		{
			"bufferView":0,
			"componentType":5126,
			"count":1026,
			"max":[
				0.45208582282066345,
				0.07552339881658554,
				0.45208582282066345
			],
			"min":[
				-0.45208582282066345,
				-0.06399080157279968,
				-0.45208582282066345
			],
			"type":"VEC3"
		},
		{
			"bufferView":1,
			"componentType":5126,
			"count":1026,
			"type":"VEC3"
		},
		{
			"bufferView":2,
			"componentType":5123,
			"count":4224,
			"type":"SCALAR"
		},
		{
			"bufferView":4,
			"componentType":5126,
			"count":38,
			"max":[
				0.44534483551979065,
				-0.01692773401737213,
				0.11436931788921356
			],
			"min":[
				-1.1427066326141357,
				-0.04000002145767212,
				-0.15974679589271545
			],
			"type":"VEC3"
		},
		{
			"bufferView":5,
			"componentType":5126,
			"count":38,
			"type":"VEC3"
		},
		{
			"bufferView":6,
			"componentType":5123,
			"count":84,
			"type":"SCALAR"
		},
		{
			"bufferView":7,
			"componentType":5126,
			"count":144,
			"max":[
				0.04875803738832474,
				0.03470402583479881,
				0.37452518939971924
			],
			"min":[
				-0.8383263349533081,
				-0.056047067046165466,
				-0.8180633187294006
			],
			"type":"VEC3"
		},
		{
			"bufferView":8,
			"componentType":5126,
			"count":144,
			"type":"VEC3"
		},
		{
			"bufferView":9,
			"componentType":5123,
			"count":240,
			"type":"SCALAR"
		},
		{
			"bufferView":10,
			"componentType":5126,
			"count":474,
			"max":[
				0.04000002518296242,
				1.074776530265808,
				0.1249525174498558
			],
			"min":[
				-0.04000002518296242,
				0.006649659015238285,
				-0.1249525174498558
			],
			"type":"VEC3"
		},
		{
			"bufferView":11,
			"componentType":5126,
			"count":474,
			"type":"VEC3"
		},
		{
			"bufferView":12,
			"componentType":5123,
			"count":1776,
			"type":"SCALAR"
		},
		{
			"bufferView":13,
			"componentType":5126,
			"count":1280,
			"max":[
				0.055189311504364014,
				0.0442500002682209,
				0.05518928915262222
			],
			"min":[
				-0.05518928915262222,
				-0.3994281589984894,
				-0.6297776699066162
			],
			"type":"VEC3"
		},
		{
			"bufferView":14,
			"componentType":5126,
			"count":1280,
			"type":"VEC3"
		},
		{
			"bufferView":15,
			"componentType":5123,
			"count":4200,
			"type":"SCALAR"
		},
		{
			"bufferView":16,
			"componentType":5126,
			"count":40,
			"max":[
				0.003804226405918598,
				0.03303883969783783,
				0.004000000189989805
			],
			"min":[
				-0.003804226405918598,
				-0.06000004708766937,
				-0.004000000189989805
			],
			"type":"VEC3"
		},
		{
			"bufferView":17,
			"componentType":5126,
			"count":40,
			"type":"VEC3"
		},
		{
			"bufferView":18,
			"componentType":5123,
			"count":108,
			"type":"SCALAR"
		},
		{
			"bufferView":19,
			"componentType":5126,
			"count":576,
			"max":[
				0.062355902045965195,
				0.05782874673604965,
				0.062355902045965195
			],
			"min":[
				-0.062355902045965195,
				-0.0442500002682209,
				-0.062355902045965195
			],
			"type":"VEC3"
		},
		{
			"bufferView":20,
			"componentType":5126,
			"count":576,
			"type":"VEC3"
		},
		{
			"bufferView":21,
			"componentType":5123,
			"count":1524,
			"type":"SCALAR"
		},
		{
			"bufferView":22,
			"componentType":5126,
			"count":34,
			"max":[
				11.872468948364258,
				2.9802322387695312e-08,
				1.2290538549423218
			],
			"min":[
				-2.2239391803741455,
				-0.3892021179199219,
				-6.519905090332031
			],
			"type":"VEC3"
		},
		{
			"bufferView":23,
			"componentType":5126,
			"count":34,
			"type":"VEC3"
		},
		{
			"bufferView":24,
			"componentType":5123,
			"count":42,
			"type":"SCALAR"
		},
		{
			"bufferView":25,
			"componentType":5126,
			"count":34,
			"max":[
				8.280481338500977,
				-0.071711465716362,
				1.112026572227478
			],
			"min":[
				-2.148451328277588,
				-0.3892021179199219,
				-4.555043697357178
			],
			"type":"VEC3"
		},
		{
			"bufferView":26,
			"componentType":5126,
			"count":34,
			"type":"VEC3"
		},
		{
			"bufferView":27,
			"componentType":5123,
			"count":42,
			"type":"SCALAR"
		}
	],
	"bufferViews":[
		{
			"buffer":0,
			"byteLength":12312,
			"byteOffset":0,
			"target":34962
		},
		{
			"buffer":0,
			"byteLength":12312,
			"byteOffset":12312,
			"target":34962
		},
		{
			"buffer":0,
			"byteLength":8448,
			"byteOffset":24624,
			"target":34963
		},
		{
			"buffer":0,
			"byteLength":17025,
			"byteOffset":33072
		},
		{
			"buffer":0,
			"byteLength":456,
			"byteOffset":50100,
			"target":34962
		},
		{
			"buffer":0,
			"byteLength":456,
			"byteOffset":50556,
			"target":34962
		},
		{
			"buffer":0,
			"byteLength":168,
			"byteOffset":51012,
			"target":34963
		},
		{
			"buffer":0,
			"byteLength":1728,
			"byteOffset":51180,
			"target":34962
		},
		{
			"buffer":0,
			"byteLength":1728,
			"byteOffset":52908,
			"target":34962
		},
		{
			"buffer":0,
			"byteLength":480,
			"byteOffset":54636,
			"target":34963
		},
		{
			"buffer":0,
			"byteLength":5688,
			"byteOffset":55116,
			"target":34962
		},
		{
			"buffer":0,
			"byteLength":5688,
			"byteOffset":60804,
			"target":34962
		},
		{
			"buffer":0,
			"byteLength":3552,
			"byteOffset":66492,
			"target":34963
		},
		{
			"buffer":0,
			"byteLength":15360,
			"byteOffset":70044,
			"target":34962
		},
		{
			"buffer":0,
			"byteLength":15360,
			"byteOffset":85404,
			"target":34962
		},
		{
			"buffer":0,
			"byteLength":8400,
			"byteOffset":100764,
			"target":34963
		},
		{
			"buffer":0,
			"byteLength":480,
			"byteOffset":109164,
			"target":34962
		},
		{
			"buffer":0,
			"byteLength":480,
			"byteOffset":109644,
			"target":34962
		},
		{
			"buffer":0,
			"byteLength":216,
			"byteOffset":110124,
			"target":34963
		},
		{
			"buffer":0,
			"byteLength":6912,
			"byteOffset":110340,
			"target":34962
		},
		{
			"buffer":0,
			"byteLength":6912,
			"byteOffset":117252,
			"target":34962
		},
		{
			"buffer":0,
			"byteLength":3048,
			"byteOffset":124164,
			"target":34963
		},
		{
			"buffer":0,
			"byteLength":408,
			"byteOffset":127212,
			"target":34962
		},
		{
			"buffer":0,
			"byteLength":408,
			"byteOffset":127620,
			"target":34962
		},
		{
			"buffer":0,
			"byteLength":84,
			"byteOffset":128028,
			"target":34963
		},
		{
			"buffer":0,
			"byteLength":408,
			"byteOffset":128112,
			"target":34962
		},
		{
			"buffer":0,
			"byteLength":408,
			"byteOffset":128520,
			"target":34962
		},
		{
			"buffer":0,
			"byteLength":84,
			"byteOffset":128928,
			"target":34963
		}
	],
	"samplers":[
		{
			"magFilter":9729,
			"minFilter":9987
		}
	],
	"buffers":[
		{
			"byteLength":129012,
			"uri":"data:application/octet-stream;base64,"
		}
	]
}
